<svg width="120" height="139" viewBox="0 0 120 139" fill="none" xmlns="http://www.w3.org/2000/svg">
<path opacity="0.48062" fill-rule="evenodd" clip-rule="evenodd" d="M64.2581 138.387C63.8582 138.495 63.4466 138.258 63.3388 137.858C63.2311 137.458 63.4679 137.046 63.8679 136.938C64.4517 136.781 65.0601 136.618 65.7988 136.419C66.1989 136.312 66.6103 136.549 66.7178 136.949C66.8252 137.349 66.5881 137.76 66.188 137.868C65.4496 138.066 64.8415 138.23 64.2581 138.387ZM71.9845 136.308C71.5846 136.416 71.1728 136.18 71.0646 135.78C70.9564 135.38 71.1929 134.968 71.5927 134.86C72.266 134.678 72.904 134.505 73.5212 134.336C73.9208 134.227 74.3331 134.463 74.442 134.863C74.551 135.262 74.3153 135.675 73.9157 135.784C73.2976 135.952 72.6586 136.126 71.9845 136.308ZM79.7049 134.179C79.3063 134.292 78.8918 134.06 78.779 133.661C78.6663 133.263 78.898 132.848 79.2966 132.735C79.9489 132.551 80.588 132.369 81.2161 132.188C81.6142 132.073 82.0297 132.303 82.1443 132.701C82.2588 133.099 82.029 133.515 81.6309 133.63C81.0005 133.811 80.3593 133.994 79.7049 134.179ZM87.3969 131.919C87.0009 132.041 86.5814 131.818 86.46 131.422C86.3385 131.026 86.5611 130.607 86.9572 130.485C87.6003 130.288 88.2348 130.091 88.8618 129.894C89.257 129.77 89.678 129.989 89.8022 130.384C89.9265 130.78 89.7069 131.201 89.3117 131.325C88.6813 131.523 88.0433 131.721 87.3969 131.919ZM95.0366 129.448C94.6447 129.583 94.2182 129.374 94.0841 128.982C93.9499 128.59 94.1588 128.163 94.5507 128.029C95.1845 127.812 95.8117 127.594 96.4328 127.375C96.8234 127.237 97.2518 127.442 97.3898 127.832C97.5277 128.223 97.323 128.651 96.9324 128.789C96.3067 129.01 95.6749 129.23 95.0366 129.448ZM102.581 126.692C102.195 126.842 101.76 126.652 101.609 126.266C101.458 125.88 101.649 125.445 102.035 125.295C102.566 125.087 103.093 124.878 103.613 124.668C103.748 124.613 103.748 124.613 103.881 124.558C104.264 124.401 104.702 124.583 104.86 124.966C105.018 125.349 104.835 125.788 104.452 125.945C104.317 126.001 104.317 126.001 104.177 126.058C103.649 126.271 103.117 126.482 102.581 126.692ZM109.96 123.349C109.598 123.551 109.141 123.421 108.939 123.059C108.738 122.697 108.867 122.241 109.229 122.039C109.814 121.713 110.37 121.379 110.902 121.035C111.25 120.81 111.714 120.91 111.939 121.258C112.164 121.606 112.064 122.07 111.717 122.295C111.157 122.657 110.572 123.007 109.96 123.349ZM116.448 118.207C116.197 118.537 115.727 118.601 115.397 118.35C115.067 118.099 115.003 117.629 115.254 117.299C115.638 116.794 115.954 116.266 116.187 115.734C116.352 115.354 116.795 115.181 117.174 115.347C117.554 115.513 117.727 115.955 117.561 116.335C117.279 116.98 116.902 117.61 116.448 118.207ZM116.835 109.85C117.061 110.197 116.963 110.662 116.616 110.888C116.268 111.114 115.804 111.015 115.578 110.668C115.252 110.167 114.864 109.687 114.414 109.225C114.125 108.928 114.131 108.454 114.428 108.165C114.725 107.876 115.199 107.882 115.488 108.179C116.004 108.709 116.454 109.264 116.835 109.85ZM110.356 104.572C110.723 104.765 110.864 105.219 110.671 105.585C110.478 105.952 110.025 106.093 109.658 105.9C109.551 105.844 109.442 105.787 109.347 105.738C108.87 105.506 108.389 105.287 107.897 105.079C107.516 104.918 107.337 104.478 107.499 104.097C107.66 103.715 108.1 103.537 108.482 103.698C108.997 103.916 109.502 104.145 110.018 104.396C110.133 104.455 110.245 104.514 110.356 104.572ZM102.647 101.808C103.05 101.904 103.299 102.309 103.203 102.712C103.107 103.115 102.702 103.363 102.299 103.267C101.672 103.118 101.031 102.98 100.376 102.854C99.9692 102.776 99.7029 102.383 99.781 101.976C99.8592 101.57 100.252 101.303 100.659 101.381C101.336 101.511 101.998 101.653 102.647 101.808ZM94.6371 100.555C95.0496 100.592 95.3533 100.957 95.3156 101.37C95.2779 101.782 94.9129 102.086 94.5004 102.048C93.861 101.99 93.2041 101.938 92.5232 101.89C92.1099 101.862 91.7982 101.503 91.8269 101.09C91.8556 100.677 92.2139 100.365 92.6271 100.394C93.3187 100.442 93.9865 100.495 94.6371 100.555ZM86.5792 100.103C86.9932 100.117 87.3171 100.464 87.3028 100.878C87.2885 101.292 86.9413 101.616 86.5273 101.602C86.2294 101.592 85.9233 101.581 85.5391 101.568C85.222 101.563 84.9022 101.559 84.5794 101.556C84.1652 101.552 83.8328 101.213 83.8369 100.799C83.841 100.385 84.1801 100.052 84.5943 100.056C84.9197 100.06 85.2421 100.064 85.5756 100.069C85.974 100.082 86.2806 100.092 86.5792 100.103ZM78.5759 100.078C78.99 100.072 79.3307 100.402 79.3367 100.817C79.3428 101.231 79.0119 101.571 78.5978 101.578C77.9578 101.587 77.297 101.598 76.6017 101.612C76.1876 101.62 75.8453 101.291 75.8372 100.877C75.8292 100.462 76.1583 100.12 76.5725 100.112C77.2701 100.099 77.9334 100.087 78.5759 100.078ZM70.5696 100.252C70.9837 100.242 71.3276 100.569 71.3378 100.983C71.3479 101.397 71.0205 101.741 70.6064 101.751C69.823 101.771 69.2042 101.785 68.6059 101.799C68.1918 101.809 67.8484 101.481 67.8389 101.067C67.8293 100.652 68.1573 100.309 68.5714 100.3C69.1688 100.286 69.7869 100.271 70.5696 100.252ZM62.5837 100.401C62.9979 100.398 63.3365 100.731 63.3401 101.145C63.3436 101.559 63.0107 101.898 62.5965 101.901C62.1774 101.905 61.7656 101.908 61.3624 101.909C61.1113 101.911 60.8579 101.914 60.6002 101.917C60.186 101.923 59.8456 101.592 59.8399 101.178C59.8342 100.763 60.1653 100.423 60.5795 100.417C60.8403 100.414 61.0969 100.411 61.354 100.409C61.7574 100.408 62.1669 100.405 62.5837 100.401ZM54.5726 100.572C54.9867 100.562 55.3307 100.89 55.3409 101.304C55.3511 101.718 55.0238 102.062 54.6097 102.072C53.8751 102.09 53.2239 102.102 52.5982 102.108C52.184 102.111 51.8452 101.779 51.8414 101.365C51.8376 100.95 52.1703 100.612 52.5845 100.608C53.2017 100.602 53.8454 100.59 54.5726 100.572ZM46.6518 100.412C47.0646 100.447 47.3711 100.809 47.3365 101.222C47.3019 101.635 46.9392 101.941 46.5265 101.907C45.8555 101.851 45.1845 101.782 44.5087 101.699C44.0975 101.649 43.8048 101.275 43.8549 100.864C43.9049 100.453 44.2788 100.16 44.69 100.21C45.3471 100.29 45.9995 100.357 46.6518 100.412ZM38.8629 99.1827C39.2667 99.2748 39.5195 99.6768 39.4274 100.081C39.3353 100.484 38.9333 100.737 38.5295 100.645C37.9179 100.506 37.2966 100.355 36.6643 100.193C36.6101 100.179 36.6101 100.179 36.5584 100.165C36.158 100.059 35.9194 99.6484 36.0255 99.248C36.1316 98.8476 36.5421 98.609 36.9425 98.7151C36.9886 98.7272 36.9886 98.7272 37.0374 98.7398C37.6566 98.8988 38.2647 99.0463 38.8629 99.1827ZM31.8756 96.1237C32.1984 96.3833 32.2498 96.8553 31.9902 97.1782C31.7307 97.501 31.2586 97.5523 30.9358 97.2928C30.3888 96.853 29.8718 96.3775 29.3902 95.8713C29.1047 95.5711 29.1166 95.0964 29.4167 94.8109C29.7168 94.5255 30.1915 94.5373 30.477 94.8375C30.9126 95.2954 31.3805 95.7256 31.8756 96.1237ZM27.5161 89.9471C27.6434 90.3413 27.4271 90.764 27.0329 90.8913C26.6387 91.0185 26.216 90.8022 26.0887 90.408C25.8688 89.727 25.7075 89.0346 25.6073 88.3361C25.5485 87.9261 25.8332 87.546 26.2432 87.4872C26.6533 87.4284 27.0333 87.7131 27.0921 88.1231C27.1801 88.7367 27.3221 89.3462 27.5161 89.9471ZM27.7127 82.6111C27.5746 83.0016 27.146 83.2062 26.7555 83.0681C26.365 82.93 26.1604 82.5015 26.2985 82.111C26.5285 81.4605 26.8056 80.8187 27.1283 80.1843C27.3161 79.8151 27.7676 79.6681 28.1368 79.8559C28.506 80.0437 28.653 80.4952 28.4652 80.8644C28.1717 81.4415 27.9205 82.0234 27.7127 82.6111ZM31.8625 76.1497C31.5804 76.453 31.1059 76.4703 30.8026 76.1882C30.4992 75.9061 30.482 75.4315 30.7641 75.1282C31.2155 74.6429 31.6939 74.1595 32.2012 73.6745C32.5005 73.3882 32.9753 73.3989 33.2615 73.6982C33.5478 73.9976 33.5372 74.4724 33.2378 74.7586C32.7511 75.224 32.2933 75.6866 31.8625 76.1497Z" fill="#335AFF"/>
<path d="M118.934 0.286107C119.694 0.476922 119.871 1.39692 119.677 2.05796C119.24 4.00018 118.484 5.85381 117.887 7.75174C109.586 33.6651 101.285 59.5784 92.9837 85.4917C92.7996 86.514 91.7257 87.2738 90.7132 87.0523C80.1553 78.4214 69.57 69.8143 58.9916 61.2071C54.1984 66.2263 49.4769 71.334 44.2746 75.934C42.945 77.0243 41.6223 78.176 40.0439 78.8848C39.6212 79.0143 38.8644 79.263 38.67 78.6906C38.6121 77.6547 38.8746 76.6359 38.9803 75.6137C40.2519 65.6981 41.5405 55.7825 42.8939 45.8772C29.2746 43.8634 15.6587 41.8531 2.03935 39.8529C1.31322 39.7303 0.348443 39.5974 0.0859432 38.783C-0.0572386 37.754 0.951852 37.127 1.79731 36.8612C7.36435 35.27 12.8462 33.4027 18.3757 31.6854C51.0007 21.3234 83.6291 10.9683 116.254 0.606403C117.117 0.357662 118.03 0.0612179 118.934 0.286107Z" fill="url(#paint0_linear_505_3506)"/>
<path fill-rule="evenodd" clip-rule="evenodd" d="M64.9515 33.5692C68.8754 31.2466 72.7993 28.9241 76.732 26.6187C88.3911 19.7425 100.05 12.863 111.709 5.9834C106.416 10.2413 101.06 14.4243 95.703 18.6074C92.4349 21.1596 89.1667 23.7119 85.9126 26.2813C82.3085 29.1071 78.7048 31.9333 75.101 34.7594C67.8889 40.4155 60.6767 46.0715 53.4615 51.7244C53.1461 51.9774 52.8178 52.2159 52.4893 52.4546C51.831 52.933 51.1721 53.4118 50.6149 54.0074C49.9394 54.7477 49.6011 55.6875 49.2657 56.6192C49.1627 56.9053 49.06 57.1907 48.9479 57.4693C48.1339 59.5472 47.2618 61.6035 46.3894 63.6603C45.877 64.8684 45.3646 66.0766 44.8638 67.2895C43.5615 70.4209 42.1808 73.5387 40.3672 76.4179C41.0978 70.3791 41.8991 64.3503 42.7004 58.3217C43.2153 54.4481 43.7302 50.5746 44.2263 46.6985C44.2433 46.6059 44.255 46.5082 44.2669 46.4091C44.3145 46.0124 44.3646 45.5946 44.7683 45.4037C51.526 41.5158 58.2389 37.5424 64.9515 33.5692ZM41.9763 76.4997C45.5524 69.5758 48.6445 62.4135 51.624 55.217C52.1445 55.6427 52.6639 56.0699 53.1834 56.4971C54.7803 57.8102 56.3775 59.1236 58.0058 60.3963C53.032 66.1003 47.7206 71.559 41.9763 76.4997Z" fill="#1D3178"/>
<defs>
<linearGradient id="paint0_linear_505_3506" x1="14.3943" y1="23.5167" x2="16.0134" y2="89.0549" gradientUnits="userSpaceOnUse">
<stop stop-color="#335AFF"/>
<stop offset="0.9999" stop-color="#244EFF"/>
<stop offset="1" stop-color="#3C61FF"/>
</linearGradient>
</defs>
</svg>
